<?xml version="1.0" standalone="no"?>
<!DOCTYPE svg PUBLIC "-//W3C//DTD SVG 20010904//EN"
 "http://www.w3.org/TR/2001/REC-SVG-20010904/DTD/svg10.dtd">
<svg version="1.0" xmlns="http://www.w3.org/2000/svg"
 width="512.000000pt" height="512.000000pt" viewBox="0 0 512.000000 512.000000"
 preserveAspectRatio="xMidYMid meet">
<metadata>
Created by potrace 1.11, written by Peter Selinger 2001-2013
</metadata>
<g transform="translate(0.000000,512.000000) scale(0.100000,-0.100000)"
fill="#000000" stroke="none">
<path d="M1580 3775 l0 -85 -115 0 -115 0 0 -65 0 -65 -115 0 -115 0 0 -115 0
-115 -60 0 -60 0 0 -110 0 -110 -70 0 -70 0 0 -125 0 -125 -65 0 -65 0 0 -115
0 -115 -40 0 -40 0 0 -114 0 -115 -47 -3 -48 -3 -3 -92 -3 -93 -34 0 -35 0 0
-535 0 -535 35 0 35 0 0 -90 0 -90 50 0 50 0 0 -90 0 -90 40 0 40 0 0 -85 0
-85 135 0 135 0 0 -80 0 -80 1575 0 1575 0 0 80 0 79 73 3 72 3 3 83 3 82 74
0 75 0 0 90 0 90 70 0 70 0 0 95 0 95 50 0 50 0 0 179 0 180 43 3 42 3 0 350
0 350 -37 3 -38 3 0 205 0 204 -50 0 -50 0 0 115 0 115 -75 0 -75 0 0 125 0
125 -75 0 -75 0 0 110 0 110 -75 0 -75 0 0 115 0 115 -110 0 -110 0 0 65 0 64
-87 3 -88 3 -3 83 -3 82 -1084 0 -1085 0 0 -85z"/>
</g>
</svg>
